<svg width="800" height="800" viewBox="0 0 800 800" fill="none" xmlns="http://www.w3.org/2000/svg">
<style>
path {
    fill: #000;
}
@media (prefers-color-scheme: dark) {
    path {
        fill: #FFF;
    }
}
</style>
<path fill-rule="evenodd" clip-rule="evenodd" d="M112.914 525.974L83.2631 555.488C76.4427 562.265 76.4427 573.284 83.2631 580.066C86.6733 583.458 91.1437 585.15 95.6142 585.15C100.072 585.15 104.543 583.458 107.953 580.066L137.604 550.552C144.424 543.775 144.424 532.757 137.604 525.974C130.783 519.185 119.734 519.185 112.914 525.974ZM284.291 173.5C293.926 173.5 301.751 165.712 301.751 156.114V114.379C301.751 104.775 293.926 97 284.291 97C274.649 97 266.831 104.775 266.831 114.379V156.114C266.831 165.712 274.649 173.5 284.291 173.5ZM443.306 239.057C447.776 239.057 452.235 237.364 455.645 233.966L485.295 204.458C492.116 197.681 492.116 186.657 485.295 179.881C478.469 173.091 467.426 173.091 460.605 179.881L430.954 209.395C424.134 216.172 424.134 227.177 430.954 233.966C434.364 237.364 438.836 239.057 443.306 239.057ZM674.654 703.15H328.783C259.661 703.15 203.423 647.172 203.423 578.374C203.423 509.581 259.661 453.605 328.783 453.605C332.273 453.605 335.746 453.747 339.168 454.033C340.247 454.15 341.345 454.138 342.392 454.033C350.564 453.313 357.304 446.933 358.185 438.575C369.959 358.014 440.464 297.342 522.438 297.342C605.82 297.342 676.598 359.321 687.072 441.519C688.052 449.165 693.942 455.055 701.24 456.407C758.487 468.714 800 519.941 800 578.374C800 647.174 743.762 703.15 674.653 703.15L674.654 703.15ZM156.355 379.961C156.355 309.755 213.745 252.629 284.288 252.629C328.367 252.629 368.297 274.864 391.728 311.223C359.592 338.697 335.981 376.016 326.357 418.867C276.754 419.592 232.602 442.906 203.677 478.849C173.785 454.798 156.356 418.886 156.356 379.959L156.355 379.961ZM59.3807 362.575H17.4602C7.82489 362.575 0 370.363 0 379.961C0 389.565 7.82489 397.34 17.4602 397.34H59.3807C69.0161 397.34 76.8409 389.565 76.8409 379.961C76.8409 370.362 69.0161 362.575 59.3807 362.575ZM112.915 233.961C116.326 237.359 120.796 239.052 125.266 239.052C129.725 239.052 134.195 237.359 137.605 233.961C144.426 227.172 144.426 216.166 137.605 209.39L107.954 179.876C101.134 173.086 90.0847 173.086 83.2641 179.876C76.4436 186.653 76.4436 197.677 83.2641 204.453L112.915 233.961Z"/>
</svg>
